<svg xmlns="http://www.w3.org/2000/svg" xmlns:xlink="http://www.w3.org/1999/xlink" width="50pt" height="50pt" version="1.1" viewBox="0 0 50 50"><g id="surface1"><path style="stroke:none;fill-rule:nonzero;fill:#000;fill-opacity:1" d="M 25 2.007813 C 12.308594 2.007813 2 12.316406 2 25.007813 C 2 37.699219 12.308594 48.007813 25 48.007813 C 37.691406 48.007813 48 37.699219 48 25.007813 C 48 12.316406 37.691406 2.007813 25 2.007813 Z M 25 4.007813 C 36.609375 4.007813 46 13.398438 46 25.007813 C 46 30.742188 43.703125 35.925781 39.988281 39.714844 C 38.160156 38.371094 35.929688 37.695313 34.039063 37.023438 C 32.976563 36.644531 32.019531 36.269531 31.320313 35.851563 C 30.652344 35.449219 30.28125 35.039063 30.082031 34.566406 C 29.992188 33.417969 30.011719 32.496094 30.015625 31.40625 C 30.140625 31.285156 30.292969 31.199219 30.417969 31.054688 C 30.710938 30.710938 31.007813 30.292969 31.292969 29.820313 C 31.777344 29.011719 32.132813 28.023438 32.328125 27.023438 C 32.632813 26.867188 32.957031 26.835938 33.203125 26.519531 C 33.65625 25.941406 33.964844 25.125 34.101563 23.988281 C 34.222656 22.984375 33.898438 22.292969 33.484375 21.765625 C 33.929688 20.300781 34.484375 17.96875 34.296875 15.558594 C 34.191406 14.230469 33.859375 12.898438 33.058594 11.785156 C 32.289063 10.726563 31.046875 9.964844 29.453125 9.6875 C 28.441406 8.539063 26.835938 8 24.914063 8 L 24.894531 8 C 20.59375 8.078125 17.816406 9.859375 16.628906 12.578125 C 15.5 15.160156 15.742188 18.375 16.550781 21.722656 C 16.117188 22.253906 15.773438 22.957031 15.898438 23.988281 C 16.035156 25.125 16.34375 25.941406 16.796875 26.519531 C 17.042969 26.835938 17.367188 26.867188 17.671875 27.023438 C 17.867188 28.023438 18.222656 29.011719 18.707031 29.816406 C 18.992188 30.289063 19.289063 30.707031 19.582031 31.050781 C 19.707031 31.199219 19.859375 31.285156 19.984375 31.40625 C 19.988281 32.496094 20.007813 33.417969 19.917969 34.566406 C 19.71875 35.039063 19.347656 35.449219 18.683594 35.851563 C 17.984375 36.269531 17.027344 36.648438 15.96875 37.03125 C 14.078125 37.707031 11.851563 38.382813 10.015625 39.71875 C 6.296875 35.929688 4 30.742188 4 25.007813 C 4 13.398438 13.390625 4.007813 25 4.007813 Z M 24.921875 10 C 26.765625 10.003906 27.925781 10.550781 28.246094 11.109375 L 28.488281 11.535156 L 28.972656 11.601563 C 30.230469 11.777344 30.933594 12.261719 31.4375 12.957031 C 31.9375 13.65625 32.21875 14.625 32.300781 15.714844 C 32.472656 17.894531 31.847656 20.46875 31.453125 21.660156 L 31.203125 22.417969 L 31.882813 22.828125 C 31.8125 22.789063 32.203125 23.019531 32.113281 23.75 C 32.007813 24.640625 31.78125 25.09375 31.628906 25.285156 C 31.476563 25.480469 31.410156 25.457031 31.425781 25.453125 L 30.605469 25.523438 L 30.515625 26.34375 C 30.441406 27.050781 30.042969 28.015625 29.578125 28.785156 C 29.347656 29.171875 29.097656 29.515625 28.890625 29.761719 C 28.683594 30.007813 28.460938 30.160156 28.546875 30.113281 L 28.011719 30.394531 L 28.011719 31 C 28.011719 32.324219 27.957031 33.40625 28.09375 34.949219 L 28.109375 35.082031 L 28.15625 35.207031 C 28.546875 36.265625 29.371094 37.011719 30.292969 37.566406 C 31.214844 38.121094 32.277344 38.519531 33.371094 38.90625 C 35.171875 39.550781 37.046875 40.179688 38.480469 41.109375 C 34.832031 44.164063 30.136719 46.007813 25 46.007813 C 19.867188 46.007813 15.171875 44.167969 11.527344 41.113281 C 12.964844 40.1875 14.84375 39.554688 16.640625 38.910156 C 17.734375 38.519531 18.792969 38.121094 19.714844 37.5625 C 20.632813 37.007813 21.453125 36.261719 21.84375 35.207031 L 21.890625 35.082031 L 21.90625 34.949219 C 22.042969 33.410156 21.988281 32.324219 21.988281 31 L 21.988281 30.394531 L 21.453125 30.113281 C 21.539063 30.15625 21.316406 30.003906 21.109375 29.761719 C 20.902344 29.515625 20.652344 29.171875 20.421875 28.785156 C 19.957031 28.015625 19.558594 27.050781 19.484375 26.34375 L 19.394531 25.523438 L 18.574219 25.453125 C 18.585938 25.457031 18.523438 25.480469 18.371094 25.285156 C 18.21875 25.09375 17.992188 24.640625 17.886719 23.75 C 17.796875 23.019531 18.191406 22.785156 18.117188 22.828125 L 18.75 22.445313 L 18.566406 21.722656 C 17.707031 18.414063 17.574219 15.398438 18.460938 13.375 C 19.34375 11.355469 21.117188 10.074219 24.921875 10 Z"/></g></svg>